<mxfile host="app.diagrams.net" modified="2024-05-07T06:09:53.365Z" agent="Mozilla/5.0 (Macintosh; Intel Mac OS X 10_15_7) AppleWebKit/537.36 (KHTML, like Gecko) Chrome/124.0.0.0 Safari/537.36" etag="KAxxQ5ZXelNO2IxbYHZN" version="24.3.0" type="device">
  <diagram name="Page-1" id="p1p4gdMQx7TvY9n41RJV">
    <mxGraphModel dx="2092" dy="721" grid="1" gridSize="10" guides="1" tooltips="1" connect="1" arrows="1" fold="1" page="1" pageScale="1" pageWidth="850" pageHeight="1100" math="0" shadow="0">
      <root>
        <mxCell id="0" />
        <mxCell id="1" parent="0" />
        <mxCell id="HL1RuTyHt3_oGBtA3hHR-1" value="" style="endArrow=classic;html=1;rounded=0;" edge="1" parent="1" target="HL1RuTyHt3_oGBtA3hHR-2">
          <mxGeometry width="50" height="50" relative="1" as="geometry">
            <mxPoint x="480" y="240" as="sourcePoint" />
            <mxPoint x="450" y="310" as="targetPoint" />
          </mxGeometry>
        </mxCell>
        <mxCell id="HL1RuTyHt3_oGBtA3hHR-2" value="GetCurrentState" style="rhombus;whiteSpace=wrap;html=1;" vertex="1" parent="1">
          <mxGeometry x="410" y="340" width="140" height="80" as="geometry" />
        </mxCell>
        <mxCell id="HL1RuTyHt3_oGBtA3hHR-4" value="InitialState" style="rounded=0;whiteSpace=wrap;html=1;" vertex="1" parent="1">
          <mxGeometry x="420" y="510" width="120" height="60" as="geometry" />
        </mxCell>
        <mxCell id="HL1RuTyHt3_oGBtA3hHR-5" value="&lt;span style=&quot;text-align: start; text-wrap: nowrap;&quot;&gt;SynchronizingState&lt;/span&gt;" style="rounded=0;whiteSpace=wrap;html=1;" vertex="1" parent="1">
          <mxGeometry x="830" y="760" width="120" height="60" as="geometry" />
        </mxCell>
        <mxCell id="HL1RuTyHt3_oGBtA3hHR-6" value="&lt;span style=&quot;text-align: start; text-wrap: nowrap;&quot;&gt;CleaningUpState&lt;/span&gt;" style="rounded=0;whiteSpace=wrap;html=1;" vertex="1" parent="1">
          <mxGeometry x="10" y="765" width="120" height="60" as="geometry" />
        </mxCell>
        <mxCell id="HL1RuTyHt3_oGBtA3hHR-7" value="&lt;div style=&quot;text-align: left;&quot;&gt;&lt;span style=&quot;background-color: initial;&quot;&gt;If there is no LastSyncTime&lt;/span&gt;&lt;/div&gt;and there is no LastSyncStartTime&lt;div style=&quot;text-align: start;&quot;&gt;It&#39;s Initial State&lt;br&gt;&lt;/div&gt;" style="text;html=1;align=center;verticalAlign=middle;resizable=0;points=[];autosize=1;strokeColor=none;fillColor=none;" vertex="1" parent="1">
          <mxGeometry x="390" y="440" width="210" height="60" as="geometry" />
        </mxCell>
        <mxCell id="HL1RuTyHt3_oGBtA3hHR-8" value="" style="endArrow=classic;html=1;rounded=0;entryX=0.5;entryY=0;entryDx=0;entryDy=0;exitX=0.5;exitY=1;exitDx=0;exitDy=0;" edge="1" parent="1" source="HL1RuTyHt3_oGBtA3hHR-2" target="HL1RuTyHt3_oGBtA3hHR-4">
          <mxGeometry width="50" height="50" relative="1" as="geometry">
            <mxPoint x="400" y="480" as="sourcePoint" />
            <mxPoint x="450" y="430" as="targetPoint" />
          </mxGeometry>
        </mxCell>
        <mxCell id="HL1RuTyHt3_oGBtA3hHR-9" value="" style="endArrow=classic;html=1;rounded=0;exitX=1;exitY=0.5;exitDx=0;exitDy=0;" edge="1" parent="1" source="HL1RuTyHt3_oGBtA3hHR-2" target="HL1RuTyHt3_oGBtA3hHR-5">
          <mxGeometry width="50" height="50" relative="1" as="geometry">
            <mxPoint x="400" y="480" as="sourcePoint" />
            <mxPoint x="450" y="430" as="targetPoint" />
          </mxGeometry>
        </mxCell>
        <mxCell id="HL1RuTyHt3_oGBtA3hHR-10" value="&lt;div style=&quot;text-align: start;&quot;&gt;If LastSyncStartTime is not empty&lt;br&gt;It&#39;s SynchronizingState&lt;/div&gt;" style="text;html=1;align=center;verticalAlign=middle;resizable=0;points=[];autosize=1;strokeColor=none;fillColor=none;" vertex="1" parent="1">
          <mxGeometry x="820" y="640" width="200" height="40" as="geometry" />
        </mxCell>
        <mxCell id="HL1RuTyHt3_oGBtA3hHR-11" value="&lt;div style=&quot;text-align: start;&quot;&gt;&lt;br&gt;Else It&#39;s CleaningUpState&lt;/div&gt;" style="text;html=1;align=center;verticalAlign=middle;resizable=0;points=[];autosize=1;strokeColor=none;fillColor=none;" vertex="1" parent="1">
          <mxGeometry x="-60" y="655" width="160" height="40" as="geometry" />
        </mxCell>
        <mxCell id="HL1RuTyHt3_oGBtA3hHR-12" value="" style="endArrow=classic;html=1;rounded=0;exitX=0;exitY=0.5;exitDx=0;exitDy=0;entryX=0.5;entryY=0;entryDx=0;entryDy=0;" edge="1" parent="1" source="HL1RuTyHt3_oGBtA3hHR-2" target="HL1RuTyHt3_oGBtA3hHR-6">
          <mxGeometry width="50" height="50" relative="1" as="geometry">
            <mxPoint x="560" y="390" as="sourcePoint" />
            <mxPoint x="800" y="750" as="targetPoint" />
          </mxGeometry>
        </mxCell>
        <mxCell id="HL1RuTyHt3_oGBtA3hHR-13" value="" style="endArrow=classic;html=1;rounded=0;exitX=1;exitY=0.5;exitDx=0;exitDy=0;entryX=0;entryY=0;entryDx=0;entryDy=0;" edge="1" parent="1" source="HL1RuTyHt3_oGBtA3hHR-4" target="HL1RuTyHt3_oGBtA3hHR-5">
          <mxGeometry width="50" height="50" relative="1" as="geometry">
            <mxPoint x="680" y="670" as="sourcePoint" />
            <mxPoint x="650" y="650" as="targetPoint" />
          </mxGeometry>
        </mxCell>
        <mxCell id="HL1RuTyHt3_oGBtA3hHR-14" value="1. Set LastSyncStartTime to now&lt;div&gt;(GetCurrentState will to go SynchronizingState)&lt;br&gt;2. Set Syncing Condition&lt;/div&gt;" style="text;html=1;align=left;verticalAlign=middle;resizable=0;points=[];autosize=1;strokeColor=none;fillColor=none;" vertex="1" parent="1">
          <mxGeometry x="380" y="580" width="280" height="60" as="geometry" />
        </mxCell>
        <mxCell id="HL1RuTyHt3_oGBtA3hHR-15" value="1. Call Synchronize&lt;div&gt;&lt;br&gt;&lt;/div&gt;" style="text;html=1;align=left;verticalAlign=middle;resizable=0;points=[];autosize=1;strokeColor=none;fillColor=none;" vertex="1" parent="1">
          <mxGeometry x="830" y="830" width="130" height="40" as="geometry" />
        </mxCell>
        <mxCell id="HL1RuTyHt3_oGBtA3hHR-16" value="" style="endArrow=classic;html=1;rounded=0;exitX=1;exitY=0;exitDx=0;exitDy=0;startArrow=none;startFill=0;curved=1;entryX=1;entryY=0.25;entryDx=0;entryDy=0;" edge="1" parent="1" source="HL1RuTyHt3_oGBtA3hHR-5" target="HL1RuTyHt3_oGBtA3hHR-5">
          <mxGeometry width="50" height="50" relative="1" as="geometry">
            <mxPoint x="980" y="760" as="sourcePoint" />
            <mxPoint x="980" y="840" as="targetPoint" />
            <Array as="points">
              <mxPoint x="1010" y="730" />
              <mxPoint x="1030" y="770" />
              <mxPoint x="1020" y="820" />
              <mxPoint x="980" y="810" />
            </Array>
          </mxGeometry>
        </mxCell>
        <mxCell id="HL1RuTyHt3_oGBtA3hHR-18" value="2. If Synchronize is not completed&lt;br&gt;Set Syncing Condition&lt;br&gt;&lt;div&gt;&lt;br&gt;&lt;/div&gt;" style="text;html=1;align=left;verticalAlign=middle;resizable=0;points=[];autosize=1;strokeColor=none;fillColor=none;" vertex="1" parent="1">
          <mxGeometry x="1040" y="730" width="200" height="60" as="geometry" />
        </mxCell>
        <mxCell id="HL1RuTyHt3_oGBtA3hHR-19" value="3. If Synchronize is completed&lt;div&gt;SetLastSyncTime to now&lt;br&gt;&lt;div&gt;SetLastSyncDuration&lt;/div&gt;&lt;div&gt;UpdateNextSyncStartTime&lt;br&gt;&lt;div&gt;SetLastManualTag&lt;br&gt;SetLastSyncStartTime to NIL (GetCurrentState will to go CleaningUpState)&lt;br&gt;setConditionCleanup&lt;br&gt;&lt;/div&gt;&lt;/div&gt;&lt;/div&gt;" style="text;html=1;align=left;verticalAlign=middle;resizable=0;points=[];autosize=1;strokeColor=none;fillColor=none;" vertex="1" parent="1">
          <mxGeometry x="610" y="830" width="420" height="110" as="geometry" />
        </mxCell>
        <mxCell id="HL1RuTyHt3_oGBtA3hHR-20" value="" style="endArrow=classic;html=1;rounded=0;entryX=1;entryY=0.75;entryDx=0;entryDy=0;exitX=0;exitY=0.75;exitDx=0;exitDy=0;" edge="1" parent="1" source="HL1RuTyHt3_oGBtA3hHR-5" target="HL1RuTyHt3_oGBtA3hHR-6">
          <mxGeometry width="50" height="50" relative="1" as="geometry">
            <mxPoint x="940" y="870" as="sourcePoint" />
            <mxPoint x="760" y="780" as="targetPoint" />
          </mxGeometry>
        </mxCell>
        <mxCell id="HL1RuTyHt3_oGBtA3hHR-21" value="1. Run Cleanup&lt;br&gt;UpdateNextSyncStartTime" style="text;html=1;align=left;verticalAlign=middle;resizable=0;points=[];autosize=1;strokeColor=none;fillColor=none;" vertex="1" parent="1">
          <mxGeometry x="10" y="825" width="170" height="40" as="geometry" />
        </mxCell>
        <mxCell id="HL1RuTyHt3_oGBtA3hHR-22" value="" style="endArrow=classic;html=1;rounded=0;exitX=1;exitY=0;exitDx=0;exitDy=0;startArrow=none;startFill=0;curved=1;entryX=1;entryY=0.25;entryDx=0;entryDy=0;" edge="1" parent="1">
          <mxGeometry width="50" height="50" relative="1" as="geometry">
            <mxPoint x="10" y="785" as="sourcePoint" />
            <mxPoint x="10" y="800" as="targetPoint" />
            <Array as="points">
              <mxPoint x="-70" y="755" />
              <mxPoint x="-90" y="785" />
              <mxPoint x="-70" y="815" />
              <mxPoint x="-50" y="825" />
            </Array>
          </mxGeometry>
        </mxCell>
        <mxCell id="HL1RuTyHt3_oGBtA3hHR-23" value="2.&amp;nbsp;&lt;span style=&quot;text-align: left;&quot;&gt;If Cleanup is not completed&lt;br&gt;Set Cleanup condition&lt;/span&gt;" style="text;html=1;align=center;verticalAlign=middle;resizable=0;points=[];autosize=1;strokeColor=none;fillColor=none;" vertex="1" parent="1">
          <mxGeometry x="-270" y="780" width="180" height="40" as="geometry" />
        </mxCell>
        <mxCell id="HL1RuTyHt3_oGBtA3hHR-24" value="3. If Should sync&lt;div&gt;- current time is after next sync time&lt;/div&gt;&lt;div&gt;- manual string is different then status&lt;/div&gt;&lt;div&gt;- There is no trigger&lt;br&gt;&lt;br&gt;setLastSyncStartTIme（now）&lt;/div&gt;&lt;div&gt;setConditionSyncing&lt;br&gt;&lt;/div&gt;" style="text;html=1;align=left;verticalAlign=middle;resizable=0;points=[];autosize=1;strokeColor=none;fillColor=none;" vertex="1" parent="1">
          <mxGeometry x="170" y="670" width="220" height="110" as="geometry" />
        </mxCell>
        <mxCell id="HL1RuTyHt3_oGBtA3hHR-25" value="" style="endArrow=classic;html=1;rounded=0;entryX=0;entryY=0.25;entryDx=0;entryDy=0;exitX=1;exitY=0.25;exitDx=0;exitDy=0;" edge="1" parent="1" source="HL1RuTyHt3_oGBtA3hHR-6" target="HL1RuTyHt3_oGBtA3hHR-5">
          <mxGeometry width="50" height="50" relative="1" as="geometry">
            <mxPoint x="960" y="895" as="sourcePoint" />
            <mxPoint x="60" y="890" as="targetPoint" />
          </mxGeometry>
        </mxCell>
        <mxCell id="HL1RuTyHt3_oGBtA3hHR-26" value="4. If Should NOT sync,&amp;nbsp; then we are in idle&lt;div&gt;-&amp;nbsp;&lt;span style=&quot;background-color: initial;&quot;&gt;setConditionScheduled&lt;br&gt;&lt;/span&gt;&lt;span style=&quot;background-color: initial;&quot;&gt;-&amp;nbsp;&lt;/span&gt;&lt;span style=&quot;background-color: initial;&quot;&gt;setConditionManual&lt;/span&gt;&lt;/div&gt;&lt;div&gt;Requeue after time to next sync&lt;/div&gt;" style="text;html=1;align=left;verticalAlign=middle;resizable=0;points=[];autosize=1;strokeColor=none;fillColor=none;" vertex="1" parent="1">
          <mxGeometry y="880" width="250" height="70" as="geometry" />
        </mxCell>
        <mxCell id="HL1RuTyHt3_oGBtA3hHR-27" value="Entry" style="text;html=1;align=center;verticalAlign=middle;resizable=0;points=[];autosize=1;strokeColor=none;fillColor=none;" vertex="1" parent="1">
          <mxGeometry x="455" y="210" width="50" height="30" as="geometry" />
        </mxCell>
      </root>
    </mxGraphModel>
  </diagram>
</mxfile>
